<?xml version="1.0" encoding="UTF-8" standalone="no"?>
<!-- Generator: Adobe Illustrator 16.0.0, SVG Export Plug-In . SVG Version: 6.00 Build 0)  -->

<svg
   xmlns:dc="http://purl.org/dc/elements/1.1/"
   xmlns:cc="http://creativecommons.org/ns#"
   xmlns:rdf="http://www.w3.org/1999/02/22-rdf-syntax-ns#"
   xmlns:svg="http://www.w3.org/2000/svg"
   xmlns="http://www.w3.org/2000/svg"
   xmlns:sodipodi="http://sodipodi.sourceforge.net/DTD/sodipodi-0.dtd"
   xmlns:inkscape="http://www.inkscape.org/namespaces/inkscape"
   version="1.1"
   id="Layer_1"
   x="0px"
   y="0px"
   width="836"
   height="76"
   viewBox="0 0 836 76"
   enable-background="new 0 0 1200 250"
   xml:space="preserve"
   inkscape:version="0.91 r13725"
   sodipodi:docname="icons.svg"><metadata
     id="metadata29"><rdf:RDF><cc:Work
         rdf:about=""><dc:format>image/svg+xml</dc:format><dc:type
           rdf:resource="http://purl.org/dc/dcmitype/StillImage" /><dc:title></dc:title></cc:Work></rdf:RDF></metadata><defs
     id="defs27" /><sodipodi:namedview
     pagecolor="#ffffff"
     bordercolor="#666666"
     borderopacity="1"
     objecttolerance="10"
     gridtolerance="10"
     guidetolerance="10"
     inkscape:pageopacity="0"
     inkscape:pageshadow="2"
     inkscape:window-width="1280"
     inkscape:window-height="703"
     id="namedview25"
     showgrid="false"
     inkscape:zoom="0.516666666393"
     inkscape:cx="172.437691586"
     inkscape:cy="-49.5942537768"
     inkscape:window-x="0"
     inkscape:window-y="1"
     inkscape:window-maximized="1"
     inkscape:current-layer="Layer_1"
     inkscape:object-nodes="true"><inkscape:grid
       type="xygrid"
       id="grid4157" /></sodipodi:namedview><path
     d="m 372.025277825,25.4747615907 c -0.592,-3.292 -3.34,-2.828 -6.617,-2.828 l -9.803,-0.106 c -1.103,-1.991 -1.092,-5.188 -2.867,-6.2 -1.24,-0.704 -16.924,-0.596 -17.984,-0.077 -2.33,1.142 -1.508,4.62 -3.061,6.248 -0.358,0.306 0.021,0.244 -0.871,0.265 -0.381,0.007 -0.473,-0.054 -0.797,-0.118 l -0.193,-2.298 c -0.244,-1.61 -7.254,-0.639 -9.352,-0.494 l -0.141,2.781 c -6.525,0.011 -5.15,2.69 -5.15,13.797 0,6.341 -0.125,12.808 0,19.135 0.076,3.784 1.408,4.425 5.148,4.425 l 28.908,-0.002 c 6.033,0 13.248,0.36 19.133,-0.022 3.744,-0.245 3.777,-2.276 3.773,-5.777 -0.008,-3.989 0.226,-26.766 -0.126,-28.729 z m -26.72,31.343 c -9.111,0.951 -16.232,-5.885 -17.092,-13.833 -0.99,-9.135 5.826,-16.309 13.855,-17.174 9.064,-0.976 16.281,5.908 17.076,13.94 0.893,9.041 -5.867,16.236 -13.839,17.067 z m 21.013,-26.719 c -6.938,0 -5.291,0.616 -7.799,-1.848 l 0,-0.684 c 0,-2.645 1.674,-1.877 8.028,-1.877 2.256,2.335 2.224,1.918 -0.229,4.409 z m -11.81,9.026 c 1.291,6.744 -3.332,12.013 -8.655,13.064 -14.208,2.808 -18.86,-18.657 -4.28,-21.719 6.63,-1.394 11.929,3.384 12.935,8.655 z"
     id="path3"
     style="fill:#26cad3;fill-opacity:1"
     inkscape:connector-curvature="0" /><path
     d="m 213.071270715,49.8079570203 -3.641,13.897 c -0.463,1.76 -1.509,3.324 -3.327,3.324 l -28.958,0 c -1.818,0 -2.861,-1.556 -3.324,-3.324 l -3.639,-13.876 c -0.523,-0.199 -1.023,-0.446 -1.495,-0.738 -1.327,-0.82 -2.423,-1.986 -3.171,-3.374 -0.563,-0.797 -1.016,-1.689 -1.328,-2.652 -0.311,-0.958 -0.479,-1.97 -0.479,-3.01 0,-2.262 0.774,-4.35 2.074,-6.012 1.071,-1.375 2.505,-2.455 4.155,-3.098 0.423,-3.492 2.208,-6.608 4.868,-8.913 2.906,-2.521 6.864,-4.071 11.213,-4.071 2.185,0 4.283,0.398 6.203,1.116 l 0.205,0.079 c 1.084,-2.959 3.814,-5.061 7.018,-5.061 0.804,0 1.578,0.134 2.303,0.378 0.797,-1.078 1.766,-1.984 2.84,-2.731 2.129,-1.48 4.686,-2.32300000001 7.126,-2.63100000001 l 0,-0.007 0.043,-0.005 c 1.935,-0.238 3.815,-0.138 5.368,0.251 0.824,0.206 1.324,1.04000000001 1.117,1.85900000001 -0.205,0.822 -1.039,1.322 -1.861,1.119 -1.193,-0.299 -2.679,-0.372 -4.243,-0.181 l -0.041,0.004 0,0 -0.005,0 0,-0.004 c -1.977,0.249 -4.042,0.926 -5.752,2.115 -0.722,0.503 -1.379,1.099 -1.934,1.798 1.567,1.444 2.555,3.564 2.555,5.926 0,0.356 -0.022,0.705 -0.066,1.046 1.837,0.965 3.391,2.267 4.593,3.784 1.427,1.795 2.371,3.897 2.724,6.094 1.428,0.616 2.657,1.601 3.578,2.835 1.124,1.506 1.789,3.381 1.789,5.41 0,2.466 -0.984,4.701 -2.576,6.327 -1.075,1.094 -2.424,1.91 -3.932,2.326 l 0,0 z m -21.119,-27.199 c 0.302,4.069 3.543,7.271 7.494,7.271 2.651,0 4.984,-1.444 6.322,-3.623 1.216,0.709 2.253,1.619 3.08,2.659 1.245,1.567 1.996,3.431 2.126,5.339 l 1.683,-0.113 -1.688,0.113 c 0.053,0.768 0.607,1.379 1.32,1.538 1.121,0.337 2.098,1.04 2.795,1.973 0.699,0.938 1.113,2.113 1.113,3.39 0,1.554 -0.611,2.956 -1.598,3.963 -0.982,1.001 -2.342,1.622 -3.844,1.622 -0.766,0 -1.487,-0.159 -2.135,-0.441 -0.682,-0.297 -1.293,-0.736 -1.801,-1.282 l -1.234,1.15 1.236,-1.152 c -0.636,-0.684 -1.705,-0.72 -2.389,-0.084 -0.258,0.24 -0.426,0.543 -0.496,0.865 -0.346,1.155 -1.057,2.156 -1.999,2.869 -0.94,0.711 -2.112,1.132 -3.39,1.132 -1.334,0 -2.555,-0.458 -3.513,-1.221 l 0.005,-0.002 -0.005,-0.002 0.005,-0.005 -0.084,-0.061 c -0.942,-0.783 -1.626,-1.866 -1.9,-3.095 l -1.644,0.364 1.65,-0.369 c -0.204,-0.91 -1.107,-1.485 -2.019,-1.282 -0.434,0.098 -0.791,0.354 -1.024,0.693 -0.505,0.652 -1.144,1.185 -1.866,1.547 -0.713,0.358 -1.527,0.56 -2.396,0.56 -0.951,0 -1.843,-0.247 -2.617,-0.684 -0.813,-0.458 -1.499,-1.119 -1.988,-1.914 l -1.434,0.885 1.439,-0.89 c -0.49,-0.792 -1.533,-1.04 -2.326,-0.55 -0.188,0.115 -0.342,0.26 -0.465,0.426 -0.147,0.174 -0.297,0.333 -0.448,0.478 -0.175,0.167 -0.36,0.326 -0.558,0.476 l -0.002,-0.002 c -0.104,0.079 -0.195,0.167 -0.276,0.263 -0.487,0.491 -1.066,0.892 -1.71,1.17 -0.647,0.279 -1.363,0.435 -2.115,0.435 -1.032,0 -1.992,-0.29 -2.803,-0.791 -0.854,-0.528 -1.556,-1.289 -2.02,-2.194 l -1.5,0.768 1.506,-0.772 c -0.057,-0.106 -0.119,-0.204 -0.191,-0.294 -0.367,-0.521 -0.657,-1.094 -0.855,-1.698 -0.198,-0.614 -0.305,-1.28 -0.305,-1.979 0,-1.492 0.503,-2.857 1.348,-3.938 0.865,-1.109 2.09,-1.927 3.496,-2.275 l -0.4,-1.637 0.405,1.642 c 0.797,-0.199 1.319,-0.933 1.281,-1.723 0.124,-2.942 1.554,-5.603 3.793,-7.541 2.313,-2.006 5.489,-3.24 9.007,-3.24 1.795,0 3.493,0.317 5.025,0.892 0.311,0.111 0.616,0.235 0.909,0.371 l 0,0 z m -5.959,28.46 0.885,0 c 0.781,0 1.436,0.643 1.506,1.422 l 0.951,10.616 c 0.07,0.779 -0.555,1.422 -1.336,1.422 l -0.885,0 c -0.781,0 -1.439,-0.641 -1.507,-1.422 l -0.953,-10.616 c -0.067,-0.781 0.555,-1.422 1.339,-1.422 l 0,0 z m 10.347,1.452 -0.887,0 c -0.781,0 -1.457,0.641 -1.506,1.422 l -0.59,9.165 c -0.049,0.781 0.556,1.422 1.339,1.422 l 0.886,0 c 0.781,0 1.456,-0.638 1.506,-1.422 l 0.588,-9.165 c 0.051,-0.781 -0.554,-1.422 -1.336,-1.422 l 0,0 z m -16.57,12.008 0.789,0 c 0.809,0 1.4,-0.668 1.232,-1.469 l -2.31,-10.883 c -0.171,-0.802 -0.901,-1.47 -1.71,-1.47 l -0.788,0 c -0.806,0 -1.401,0.67 -1.231,1.47 l 2.309,10.883 c 0.171,0.799 0.901,1.469 1.709,1.469 l 0,0 z"
     id="path5"
     style="clip-rule:evenodd;fill:#26cad3;fill-opacity:1;fill-rule:evenodd"
     inkscape:connector-curvature="0" /><path
     d="m 564.896895859,52.6640853737 c 0.994,1.254 1.754,2.844 1.793,3.601 0.055,1.003 -0.725,1.252 -1.908,1.334 0.506,1.37 1.482,2.346 2.418,3.281 1.736,1.732 3.371,3.362 3.135,6.454 -0.063,0.82 -0.729,1.429 -1.484,1.361 -0.755,-0.068 -1.32,-0.788 -1.258,-1.603 0.131,-1.651 -1.025,-2.804 -2.252,-4.024 -1.463,-1.461 -2.998,-2.994 -3.521,-5.406 -1.197,-0.034 -2.063,-0.258 -2.115,-1.234 -0.027,-0.523 0.064,-1.452 0.295,-2.403 -7.504,0.36 -15.193,-6.628 -18.051,-16.612 -3.309,-11.553 1.918,-19.894 10.391,-23.104 4.775,-1.809 9.563,-1.603 13.422,0.99 l -0.621,1.879 c -4.174,12.557 -3.043,23.791 4.041,31.828 -1.215,1.534 -2.65,2.784 -4.285,3.658 l 0,0 z m 11.038,2.996 c 0.066,1.333 0.488,2.59 0.896,3.807 0.902,2.688 1.752,5.215 0.063,8.129 -0.402,0.693 -1.252,0.901 -1.893,0.464 -0.639,-0.435 -0.832,-1.354 -0.43,-2.047 0.977,-1.678 0.348,-3.548 -0.32,-5.537 -0.619,-1.848 -1.266,-3.771 -1.147,-5.874 -1.137,-0.482 -1.832,-0.983 -1.49,-1.932 0.283,-0.781 1.694,-2.237 3.161,-3.082 -6.346,-3.356 -10.012,-11.452 -9.889,-20.208 l 0.018,-0.731 c 0.1,-2.575 0.523,-5.197 1.305,-7.765 1.422,-4.672 3.689,-8.06 6.477,-10.283 l 1.34,-0.95799999995 c 4.404,-2.79 9.871,-3.014 15.324,-1.069 9.66,3.44399999995 15.621,12.38899999995 11.85,24.78499999995 -3.525,11.585 -13.49,19.409 -22.668,17.572 0.266,1.504 -0.033,3.438 -0.318,4.232 -0.322,0.891 -1.174,0.838 -2.279,0.497 l 0,0 z m -7.585,-25.29 c -0.016,0.167 -0.029,0.333 -0.041,0.498 -0.08,1.092 0.676,2.047 1.684,2.133 1.008,0.084 1.891,-0.731 1.969,-1.823 0.025,-0.306 0.055,-0.627 0.094,-0.962 0.033,-0.329 0.078,-0.679 0.129,-1.053 0.15,-1.083 -0.539,-2.092 -1.539,-2.258 -1,-0.161 -1.938,0.587 -2.086,1.669 -0.025,0.19 -0.053,0.381 -0.076,0.568 l -0.134,1.228 0,0 z m 7.657,-17.208 c -0.098,0.07 -0.195,0.143 -0.293,0.215 -2.389,1.821 -4.112,4.676 -5.305,8.284 -0.344,1.028 0.152,2.16 1.102,2.527 0.95,0.367 1.997,-0.165 2.336,-1.193 0.943,-2.846 2.238,-5.054 3.975,-6.376 1.664,-1.266 3.826,-1.75 6.594,-1.234 0.996,0.186 1.943,-0.541 2.111,-1.622 0.172,-1.078 -0.5,-2.101 -1.496,-2.287 -3.461,-0.647 -6.314,-0.088 -8.656,1.438 l -0.368,0.248 0,0 z m -29.424,26.671 c -0.332,-1.033 0.174,-2.163 1.129,-2.521 0.953,-0.36 1.998,0.186 2.328,1.221 0.133,0.41 0.244,0.743 0.332,1.001 0.119,0.333 0.232,0.639 0.338,0.913 0.389,1.005 -0.051,2.165 -0.979,2.588 -0.928,0.421 -2.002,-0.052 -2.391,-1.058 -0.135,-0.344 -0.262,-0.688 -0.381,-1.028 -0.15,-0.414 -0.271,-0.79 -0.376,-1.116 l 0,0 z m 9.341,-23.021 c 1.004,-0.163 1.938,0.584 2.086,1.667 0.148,1.084 -0.541,2.095 -1.543,2.257 -0.199,0.034 -0.344,0.057 -0.43,0.075 -2.707,0.555 -4.879,2.059 -6.277,4.069 -1.369,1.97 -1.996,4.438 -1.643,6.963 0.023,0.181 0.039,0.294 0.049,0.342 0.186,1.075 -0.469,2.108 -1.461,2.31 -0.996,0.202 -1.951,-0.505 -2.139,-1.581 -0.035,-0.224 -0.064,-0.39 -0.076,-0.482 -0.502,-3.596 0.393,-7.115 2.346,-9.927 1.928,-2.77 4.883,-4.839 8.525,-5.587 0.245,-0.049 0.433,-0.086 0.563,-0.106 l 0,0 z"
     id="path7"
     style="clip-rule:evenodd;fill:#26cad3;fill-opacity:1;fill-rule:evenodd"
     inkscape:connector-curvature="0" /><path
     d="m 812.959568912,64.3945 -33.682,0 c -0.828,0 -1.504,0.684 -1.504,1.502 l 0,0.182 c 0,0.816 0.686,1.5 1.504,1.5 l 33.682,0 c 0.818,0 1.502,-0.676 1.502,-1.5 l 0,-0.182 c 0,-0.826 -0.676,-1.502 -1.502,-1.502 l 0,0 z m -12.363,-18.486 c -0.873,0 -1.58,0.703 -1.58,1.576 0,0.869 0.707,1.575 1.58,1.575 0.869,0 1.574,-0.706 1.574,-1.575 0,-0.873 -0.705,-1.576 -1.574,-1.576 l 0,0 z m 2.961,12.882 c 1.219,-0.267 1.65,-2.991 0.969,-6.085 -0.158,-0.72 -0.363,-1.396 -0.6,-2.008 0.588,0.289 1.24,0.555 1.945,0.779 3.018,0.955 5.773,0.765 6.148,-0.424 0.375,-1.189 -1.766,-2.928 -4.785,-3.884 -0.705,-0.224 -1.393,-0.383 -2.041,-0.482 0.547,-0.364 1.104,-0.8 1.646,-1.298 2.338,-2.137 3.549,-4.615 2.709,-5.536 -0.844,-0.919 -3.42,0.065 -5.756,2.203 -0.547,0.498 -1.029,1.015 -1.441,1.526 -0.039,-0.654 -0.137,-1.356 -0.299,-2.076 -0.682,-3.092 -2.221,-5.381 -3.439,-5.111 -1.219,0.268 -1.652,2.991 -0.971,6.084 0.16,0.721 0.363,1.398 0.602,2.01 -0.586,-0.291 -1.24,-0.555 -1.945,-0.779 -3.018,-0.956 -5.771,-0.766 -6.148,0.424 -0.377,1.19 1.768,2.928 4.785,3.885 0.705,0.223 1.393,0.383 2.041,0.482 -0.545,0.363 -1.104,0.797 -1.646,1.296 -2.336,2.138 -3.551,4.614 -2.709,5.536 0.842,0.92 3.42,-0.065 5.758,-2.203 0.543,-0.498 1.027,-1.014 1.439,-1.525 0.041,0.654 0.137,1.355 0.299,2.076 0.679,3.09 2.22,5.382 3.439,5.11 l 0,0 z m 9.582,3.335 c 0.004,-0.05 2,-8.499 2.324,-10.206 0.514,0.189 1.051,0.246 1.6,0.152 0.174,-0.023 0.34,-0.068 0.498,-0.132 1.328,-0.456 2.164,-1.751 2.451,-3.528 0.127,-0.811 0.152,-1.766 0.057,-2.785 1.012,0.186 1.961,0.249 2.777,0.192 1.895,-0.132 3.313,-0.919 3.824,-2.335 0.035,-0.086 0.063,-0.172 0.084,-0.26 0.389,-1.445 -0.316,-2.898 -1.787,-4.095 -0.641,-0.519 -1.457,-1.019 -2.393,-1.449 0.668,-0.781 1.201,-1.573 1.557,-2.308 0.857,-1.752 0.859,-3.414 -0.195,-4.57 -1.061,-1.156 -2.713,-1.306 -4.531,-0.611 -0.135,0.051 -0.268,0.107 -0.404,0.168 0.045,-5.127 -1.463,-9.875 -6.656,-15.071 -4.244,-4.242 -10.105,-6.86599999997 -16.58,-6.86599999997 -6.473,0 -12.336,2.62399999997 -16.576,6.86599999997 -2.123,2.122 -3.84,4.647 -5.025,7.452 -3.32,7.846 -1.15,12.746 0.502,20.711 0.297,1.422 4.67,18.338 4.701,18.738 l 33.772,-0.063 0,0 z m -2.27,-15.917 c -0.336,-0.19 -0.693,-0.374 -1.066,-0.546 0.717,-0.841 1.285,-1.689 1.67,-2.478 0.92,-1.877 0.922,-3.662 -0.209,-4.9 -1.137,-1.243 -2.912,-1.404 -4.863,-0.656 -0.354,0.133 -0.721,0.303 -1.096,0.502 -0.275,-0.351 -0.391,-0.699 -0.311,-1.019 0.273,-1.069 2.697,-1.372 5.412,-0.677 0.635,0.16 1.229,0.361 1.76,0.591 -0.24,-0.528 -0.455,-1.116 -0.631,-1.746 -0.756,-2.699 -0.506,-5.132 0.557,-5.428 1.064,-0.3 2.541,1.648 3.295,4.351 0.176,0.629 0.299,1.242 0.367,1.818 0.338,-0.472 0.74,-0.954 1.197,-1.42 1.961,-2.005 4.191,-3.006 4.98,-2.23 0.789,0.77 -0.16,3.022 -2.119,5.026 -0.459,0.467 -0.93,0.879 -1.395,1.228 0.578,0.057 1.195,0.166 1.83,0.326 2.715,0.695 4.697,2.129 4.422,3.197 -0.273,1.071 -2.699,1.375 -5.414,0.68 -0.633,-0.163 -1.227,-0.365 -1.758,-0.594 0.238,0.53 0.455,1.119 0.631,1.746 0.754,2.701 0.506,5.131 -0.557,5.43 -1.064,0.297 -2.541,-1.65 -3.297,-4.35 -0.176,-0.629 -0.297,-1.243 -0.367,-1.82 -0.338,0.473 -0.738,0.953 -1.197,1.422 -0.605,0.619 -1.234,1.141 -1.841,1.547 l 0,0 z m -8.766,-10.312 c -1.023,-1.291 -2.285,-1.979 -3.625,-1.832 -0.256,0.014 -0.504,0.07 -0.732,0.163 -0.178,0.059 -0.35,0.136 -0.512,0.224 -0.215,-0.369 -0.5,-0.697 -0.861,-0.971 -1.355,-1.047 -3.15,-0.906 -4.945,0.17 -0.645,0.387 -1.324,0.914 -1.992,1.555 -0.477,-0.795 -0.994,-1.482 -1.516,-2.021 -1.342,-1.397 -2.891,-2.02 -4.367,-1.586 -0.252,0.06 -0.484,0.159 -0.701,0.288 -1.35,0.736 -2.006,2.263 -1.977,4.192 0.012,0.756 0.131,1.613 0.352,2.516 -0.928,0.014 -1.781,0.117 -2.512,0.299 -0.744,0.186 -1.402,0.457 -1.943,0.814 -1.816,-8.256 -2.977,-14.902 4.479,-22.355 3.713,-3.715 8.844,-6.013 14.514,-6.013 5.668,0 10.803,2.298 14.518,6.013 1.855,1.856 3.359,4.068 4.396,6.525 0.869,2.053 1.303,3.953 1.445,5.795 -0.125,-0.225 -0.254,-0.436 -0.387,-0.633 -1.008,-1.496 -2.318,-2.323 -3.717,-2.169 -0.24,0.014 -0.471,0.065 -0.684,0.149 -1.33,0.455 -2.166,1.75 -2.451,3.527 -0.129,0.812 -0.152,1.768 -0.059,2.786 -1.008,-0.187 -1.959,-0.249 -2.773,-0.192 -1.953,0.133 -3.398,0.965 -3.871,2.459 -0.032,0.1 -0.057,0.199 -0.079,0.297 l 0,0 z m -8.679,4.898 c -0.477,-0.032 -0.926,-0.032 -1.346,-0.003 -2.094,0.146 -3.643,1.035 -4.152,2.638 -0.215,0.685 -0.203,1.371 0.01,2.036 l -4.816,0 c -0.164,-0.016 -0.33,-0.036 -0.498,-0.059 -2.959,-0.394 -5.232,-1.66 -5.076,-2.823 0.154,-1.169 2.682,-1.794 5.641,-1.398 0.688,0.092 1.34,0.231 1.934,0.406 -0.32,-0.53 -0.623,-1.126 -0.887,-1.77 -1.137,-2.76 -1.182,-5.361 -0.092,-5.811 1.088,-0.447 2.893,1.428 4.029,4.188 0.266,0.643 0.471,1.277 0.615,1.877 0.299,-0.541 0.664,-1.1 1.09,-1.65 1.82,-2.366 4.053,-3.703 4.984,-2.984 0.904,0.693 0.255,3.057 -1.436,5.353 l 0,0 z m 21.256,-2.67 c -0.871,0 -1.576,0.706 -1.576,1.576 0,0.871 0.705,1.576 1.576,1.576 0.871,0 1.576,-0.705 1.576,-1.576 0,-0.869 -0.705,-1.576 -1.576,-1.576 l 0,0 z"
     id="path9"
     style="clip-rule:evenodd;fill:#26cad3;fill-opacity:1;fill-rule:evenodd"
     inkscape:connector-curvature="0" /><path
     d="m 84.721770715,37.723 30.924,0 30.921,0 c 0.007,-0.153 0.011,-0.308 0.011,-0.462 0.006,-0.149 0.008,-0.309 0.008,-0.461 0,-8.178 -3.329000001,-13.645 -8.729000001,-19.084 -5.398,-5.438 -12.877,-8.90099999997 -21.186,-9.16599999997 l 0,-0.351 c 1.299,-0.421 2.234,-1.442 2.234,-3.025 0,-1.585 -1.458,-3.186 -3.26,-3.186 -1.803,0 -3.262,1.601 -3.262,3.186 0,1.583 0.936,2.604 2.232,3.025 l 0,0.352 c -8.82,0.28 -16.7109999992,4.17099999997 -22.1659999992,10.20299999997 -4.816,5.328 -7.745,10.376 -7.745,18.047 0,0.152 0.005,0.312 0.005,0.461 0.001,0.154 0.007,0.308 0.013,0.461 z m 11.63,-18.992 c 4.735,-4.954 11.476,-8.206 19.028,-8.638 -4.688,2.094 -8.652,5.379 -11.439,9.432 -2.786,4.055 -4.4060000001,6.928 -4.4060000001,12.109 0,0.643 0.025,1.283 0.074,1.913 0.047,0.632 0.121,1.259 0.221,1.878 l -5.26,0 -5.256,0 c -0.012,-0.218 -0.023,-0.438 -0.025,-0.654 -0.002,-0.219 -0.01,-0.439 -0.01,-0.66 0,-6.658 2.676,-10.781 7.073,-15.38 z m 55.276,21.021 c -0.568,4.372 -8.787,6.307 -12.965,6.443 l -46.037,0 c -4.178,-0.137 -12.393,-2.071 -12.965,-6.443 l 71.967,0 z m -37.855,28.244 21.867,0 0,6.016 -21.867,0 0,-6.016 z m 24.09,-17.342 c -0.693,1.563 -3.896,4.535 -5.014,6.238 -3.413,5.192 -2.199,8.242 -4.338,8.799 l -14.307,0 c -1.275,-0.923 -5.994,-5.088 -6.83,-5.787 -3.301,-2.77 -7.629,-5.392 -10.468,-8.498 -1.805,-1.978 0.1,-2.877 2.061,-2.734 1.979,0.146 3.306,1.692 4.854,2.781 l 6.498,4.57 -4.361,-5.42 c -1.857,-2.305 1.985,-3.84 3.785,-1.854 l 5.459,6.023 -1.486,-4.259 c -1.26,-3.604 3.102,-3.335 3.859,-1.552 2.5,5.902 4.336,8.435 10.158,5.502 1.623,-0.819 2.422,-1.725 3.611,-3.319 0.682,-0.911 2.014,-2.091 3.381,-2.751 2.03,-0.976 5.161,-0.315 3.138,2.261 z"
     id="path11"
     style="fill:#26cad3;fill-opacity:1"
     inkscape:connector-curvature="0" /><path
     d="m 421.646762344,67.309493941 c 5.07,-0.378 5.982,-0.804 11.219,-0.804 l 8.656,-0.002 c 2.529,0 4.418,-1.671 5.691,-3.997 1.244,-2.278 1.928,-5.367 1.926,-7.661 0,-2.498 0.02,-4.964 0.037,-7.428 0.018,-2.43 0.036,-4.862 0.038,-7.265 l 0.005,-0.102 0.002,-0.011 0.002,-0.05 0,-0.023 0,-0.022 0,-0.002 0,0 0,-0.036 -0.009,0 c -0.002,-0.953 -0.356,-2.905 -0.446,-4.094 -1.207,-16.187 -15.308,-28.33100000011 -31.496,-27.12200000011 -16.188,1.207 -28.332,15.31000000011 -27.123,31.49700000011 1.207,16.189 15.311,28.331 31.498,27.122 l 0,0 z m 23.12,-29.122 c 0.946,0 1.722,0.774 1.722,1.721 0.002,4.984 -0.076,9.959 -0.072,14.932 0,3.413 -1.82,8.938 -4.893,8.938 l -8.654,0 c -3.076,0 -7.383,-3.675 -7.502,-8.333 -0.27,-3.718 -3.406,-3.295 -4.297,-4.917 -0.59,-1.084 0.014,-1.8 1.119,-2.351 1.527,-0.765 5.707,2.21 7.43,4.862 -0.002,-5.706 -0.004,-11.413 -0.004,-17.122 -0.002,-2.747 3.182,-3.263 3.182,-0.009 l 0.004,10.251 c 0.113,-0.165 1.113,-0.278 1.521,-0.36 l -0.002,-12.998 c 0,-1.008 0.537,-1.837 1.545,-1.837 1.025,0 1.541,0.845 1.541,1.828 l 0.006,12.951 c 0.344,0.027 1.274,0.07 1.633,0.113 l -0.004,-10.623 c 0,-1.014 0.541,-1.848 1.557,-1.848 1.035,-0.002 1.559,0.849 1.559,1.839 l 0.002,11.028 c 0,0.145 1.33,0.424 1.465,0.464 l -0.002,-6.803 c -0.001,-0.944 0.198,-1.726 1.144,-1.726 l 0,0 z m -25.425,-1.768 c 0.874,-0.066 1.636,0.589 1.698,1.463 0.066,0.872 -0.588,1.633 -1.463,1.698 -0.871,0.066 -1.633,-0.589 -1.698,-1.463 -0.066,-0.871 0.589,-1.633 1.463,-1.698 l 0,0 z m -0.493,-6.619 c 4.529,-0.337 8.473,3.06 8.811,7.588 0.338,4.527 -3.059,8.471 -7.588,8.811 -4.527,0.337 -8.472,-3.06 -8.809,-7.588 -0.34,-4.527 3.056,-8.471 7.586,-8.811 l 0,0 z m -8.343,-8.757 c 0.831,-0.355 1.794,0.029 2.151,0.86 0.355,0.831 -0.029,1.793 -0.861,2.149 -1.98,0.851 -3.701,2.167 -5.033,3.8 -1.324,1.625 -2.268,3.568 -2.699,5.682 -0.18,0.885 -1.039,1.458 -1.925,1.279 -0.886,-0.179 -1.458,-1.042 -1.282,-1.927 0.541,-2.64 1.719,-5.072 3.377,-7.104 1.661,-2.04 3.806,-3.681 6.272,-4.739 l 0,0 z m -1.224,-6.757 c 0.832,-0.355 1.795,0.03 2.15,0.861 0.355,0.831 -0.029,1.793 -0.861,2.149 -3.376,1.449 -6.309,3.693 -8.578,6.479 -2.262,2.774 -3.867,6.087 -4.604,9.69 -0.18,0.885 -1.041,1.458 -1.927,1.279 -0.886,-0.177 -1.458,-1.04 -1.28,-1.925 0.846,-4.135 2.689,-7.935 5.281,-11.116 2.602,-3.192 5.956,-5.76 9.819,-7.417 l 0,0 z"
     id="path13"
     style="clip-rule:evenodd;fill:#26cad3;fill-opacity:1;fill-rule:evenodd"
     inkscape:connector-curvature="0" /><path
     d="m 501.908270714,23.0365 c -2.665,0 -4.998,1.537 -6.264,3.827 -1.266,-2.29 -3.596,-3.827 -6.264,-3.827 -4.018,0 -7.273,3.482 -7.273,7.776 0,2.452 1.064,4.64 2.723,6.064 l 10.814,10.817 10.815,-10.817 c 1.659,-1.425 2.722,-3.612 2.722,-6.064 0,-4.294 -3.256,-7.776 -7.273,-7.776 l 0,0 z m -15.441,3.245 c 0.043,-0.052 0.093,-0.097 0.145,-0.138 0.342,-0.428 0.867,-0.703 1.459,-0.703 1.029,0 1.865,0.836 1.865,1.867 0,1.032 -0.992,1.322 -1.865,1.867 -2.238,1.396 -0.815,4.649 -0.01,5.487 0.43,0.448 1.146,0.919 0.697,1.353 -0.447,0.432 -0.922,0.176 -1.354,-0.274 -1.637,-1.7 -2.346,-2.883 -2.584,-4.526 -0.248,-1.741 0.287,-3.382 1.647,-4.933 l 0,0 z m 29.919,-7.591 -7.855,-8.223 -1.221,1.162 1.221,-1.166 c -0.33,-0.347 -0.773,-0.52099999997 -1.221,-0.52099999997 l 0,-0.002 -31.271,0 c -0.932,0 -1.688,0.75699999997 -1.688,1.68899999997 l 0,19.611 -6.259,4.678 c -0.259,0.314 -0.384,0.693 -0.384,1.071 l 0,0.002 0,24.919 c 0,1.141 0.467,2.18 1.217,2.93 0.752,0.752 1.791,1.219 2.932,1.219 l 47.574,0 c 1.143,0 2.18,-0.467 2.932,-1.219 0.752,-0.75 1.217,-1.789 1.217,-2.93 l 0,-24.921 c 0,-0.931 -0.755,-1.687 -1.688,-1.687 l -4.955,-4.063 0,-11.303 c 0,-0.492 -0.213,-0.937 -0.551,-1.246 l 0,0 z m -38.658,22.969 0,-28.342 28.867,0 0.367,0.385 0,7.516 6.599,0 0,20.441 -17.22,14.15 c -0.179,0.148 -0.436,0.223 -0.699,0.225 -0.258,0.002 -0.498,-0.063 -0.66,-0.197 l -17.254,-14.178 0,0 z m -6.642,20.252 0,-21.357 21.76,17.881 c 0.791,0.65 1.814,0.969 2.824,0.963 0.998,-0.01 2.018,-0.34 2.808,-0.99 l 21.728,-17.854 0,21.357 c 0,0.208 -0.088,0.402 -0.229,0.543 -0.141,0.141 -0.336,0.229 -0.545,0.229 l -47.574,0 c -0.209,0 -0.402,-0.088 -0.543,-0.229 -0.14,-0.141 -0.229,-0.335 -0.229,-0.543 l 0,0 z"
     id="path15"
     style="fill:#26cad3;fill-opacity:1"
     inkscape:connector-curvature="0" /><path
     d="m 633.237770714,29.5805 0,10.266 0,3.206 0,6.979 1.725,0 0,-6.979 7.605,0 0,-10.28 -2.742,0 4.105,-7.106 3.195,-5.531 0,-5.865 1.857,0 0,5.931 3.154,5.463 4.107,7.108 -2.836,0 0,10.28 8.621,0 0,-13.472 -3.107,0 0,-6.792 0,-0.326 0,-4.383 3.715,0 0,4.383 4.518,0 0,-4.383 3.709,0 0,4.383 4.609,0 0,-4.383 3.717,0 0,4.383 0,0.326 0,6.792 -3.133,0 0,18.701 2.41,1.533 0,11.915 -2.41,0 -3.613,0 -8.258,0 -2.156,0 -10.781,0 0,-8.034 c 0,-1.599 -1.307,-2.905 -2.906,-2.905 l 0,0 c -1.596,0 -2.902,1.307 -2.902,2.905 l 0,8.034 -12.203,0 -2.029,0 -8.182,0 -3.811,0 -2.213,0 0,-11.915 2.213,-1.408 0,-18.826 -3.117,0 0,-6.792 0,-0.326 0,-4.383 3.719,0 0,4.383 4.516,0 0,-4.383 3.709,0 0,4.383 4.613,0 0,-4.383 3.715,0 0,4.383 0,0.326 0,6.792 -3.133,0 0,0 z m 33.879,5.586 0,6.462 3.615,0 0,-6.462 -3.615,0 0,0 z m -42.823,0 0,6.462 3.615,0 0,-6.462 -3.615,0 z"
     id="path17"
     style="clip-rule:evenodd;fill:#26cad3;fill-opacity:1;fill-rule:evenodd"
     inkscape:connector-curvature="0" /><path
     d="m 30.970770715,20.1026527751 7.19,0 c 6.4959999999,-4.439 13.7089999999,-7.455 22.0639999999,-8.184 1.857,1.126 3.7090000001,2.254 5.5750000001,3.379 0,6.693 0,13.388 0,20.084 l -5.0240000001,3.666 -2.971,17.693 -3.844,0 c -0.287,0.896 -0.67,2.898 1.486,3.619 1.789,0.595 4.01,-3.087 5.74,-5.951 1.173,-1.952 2.1820000001,-3.621 3.3550000001,-4.262 3.94,-2.149 5.601,1.727 5.607,1.735 l -3.311,1.509 c 0,0 -0.121,-0.29 -0.558,-0.052 -0.29,0.158 -1.069,1.447 -1.972,2.947 -2.3890000001,3.957 -5.4590000001,9.038 -10.0100000001,7.521 -4.391,-1.467 -4.527,-4.873 -4.09,-7.067 l -4.137,0 3.385,-20.161 c -4.174,-1.456 -7.9469999999,-3.426 -11.2989999999,-5.939 l -7.203,0 -3.146,5.02 -6.959,0 0,-20.883 6.959,0 3.159,5.102 0,0.224 0.004,0 z m -21.10400000012,-1.022 7.19100000012,1.737 0.441,-1.828 -7.198,-1.733 -0.43400000012,1.824 0,0 z m -0.115,12.874 7.19300000012,-1.737 0.443,1.825 -7.195,1.737 -0.44100000012,-1.825 0,0 z m -0.612,-7.331 7.39800000012,0 0,1.875 -7.39800000012,0 0,-1.875 z"
     id="path19"
     style="clip-rule:evenodd;fill:#26cad3;fill-opacity:1;fill-rule:evenodd"
     inkscape:connector-curvature="0" /><path
     d="m 720.307547987,57.4765274636 c -4.967,0 -9.934,0.008 -14.9,0 -2.982,-0.004 -5.113,-2.08 -5.129,-5.072 -0.029,-6.379 -0.037,-12.758 -0.01,-19.135 0.014,-3.17 2.137,-5.24 5.305,-5.242 9.781,-0.005 19.564,0.039 29.348,-0.014 3.521,-0.018 5.471,2.672 5.422,5.448 -0.107,6.226 -0.031,12.454 -0.035,18.683 0,3.281 -2.055,5.332 -5.324,5.332 -4.893,0.002 -9.784,0 -14.677,0 z m 0.139,-8.877 c 3.957,0 7.918,0.008 11.875,-0.004 1.287,-0.002 2.197,-0.85 2.207,-1.995 0.008,-1.14 -0.92,-2.007 -2.186,-2.009 -7.943,-0.002 -15.885,-0.004 -23.828,0.01 -0.365,0 -0.764,0.072 -1.09,0.23 -0.818,0.396 -1.211,1.336 -1.01,2.24 0.205,0.91 1.008,1.521 2.076,1.523 3.987,0.009 7.97,0.003 11.956,0.005 z m 12.314,-24.203 c -0.789,-2.249 -2.707,-3.506 -5.277,-3.503 -9.787,0.006 -19.576,0 -29.363,0.016 -0.602,0 -0.979,-0.125 -1.32,-0.7 -0.82,-1.379 -2.5,-1.977 -4.01,-1.558 -1.578,0.439 -2.721,1.803 -2.734,3.412 -0.029,3.482 -0.047,6.964 0.01,10.444 0.033,2.188 2.234,3.831 4.379,3.383 1.744,-0.364 2.762,-1.592 3.037,-3.673 0.563,-4.205 3.689,-6.997 7.93,-7.009 7.971,-0.021 15.943,-0.007 23.914,-0.007 1.178,0 2.357,0 3.637,0 -0.085,-0.336 -0.124,-0.579 -0.203,-0.805 z m 12.928,15.999 c 0.316,0.024 0.713,0.221 0.9,0.471 0.945,1.242 1.844,2.52 2.738,3.799 0.488,0.7 1.121,1.045 1.979,1.031 1.26,-0.023 2.521,0.002 3.779,-0.014 1.365,-0.018 2.16,-0.795 2.164,-2.17 0.014,-6.202 0.014,-12.402 0.002,-18.604 0,-1.31 -0.816,-2.106 -2.131,-2.122 -1.287,-0.016 -2.572,0.01 -3.859,-0.009 -0.826,-0.012 -1.445,0.31 -1.914,0.991 -0.744,1.078 -1.57,2.104 -2.264,3.211 -0.508,0.813 -1.078,1.196 -2.076,1.08 -0.973,-0.11 -1.963,-0.026 -2.947,-0.02 -0.182,0 -0.365,0.043 -0.662,0.081 1.541,1.868 1.852,3.966 1.791,6.188 -0.057,1.986 -0.012,3.977 -0.012,6.063 0.907,10e-4 1.715,-0.042 2.512,0.024 z"
     id="path21"
     style="fill:#26cad3;fill-opacity:1"
     inkscape:connector-curvature="0" /><path
     d="m 277.844240153,54.64169942 c -6.812,2.878 -13.556,2.927 -20.388,0.064 0,6.08 0,12.065 0,18.094 -1.22,0 -2.352,0 -3.555,0 0,-0.313 0,-0.589 0,-0.863 0,-5.75 -0.007,-11.501 0.014,-17.251 0.002,-0.545 -0.136,-0.848 -0.632,-1.13 -0.878,-0.495 -1.685,-1.112 -2.567,-1.709 0,7.874 0,15.786 0,23.7609999998 -1.219,0 -2.349,0 -3.569,0 -0.011,-0.239 -0.038,-0.505 -0.038,-0.772 -0.002,-8.7009999998 -0.01,-17.4029999998 0.016,-26.1049999998 0.002,-0.501 0.174,-1.062 0.435,-1.492 0.97,-1.601 2.417,-2.66 4.142,-3.331 0.451,-0.175 0.609,-0.401 0.607,-0.885 -0.016,-5.292 0.016,-10.584 -0.02,-15.876 -0.025,-4.119 -0.238,-8.238 -0.17,-12.353 0.112,-6.51700000003 4.646,-12.39600000003 10.836,-13.78700000003 4.16,-0.934000000001 8.443,-1.032000000001 12.352,1.098 5.213,2.839 7.717,7.431 7.895,13.28700000003 0.094,3.203 0.191,6.426 -0.049,9.615 -0.45,5.999 -0.09,11.998 -0.246,17.994 -0.014,0.517 0.102,0.781 0.646,0.984 1.876,0.694 3.289,1.993 4.367,3.657 0.156,0.24 0.252,0.565 0.252,0.852 0.013,8.905 0.01,17.812 0.008,26.7179999998 0,0.123 -0.023,0.247 -0.041,0.413 -1.156,0 -2.287,0 -3.516,0 0,-8.0039999998 0,-15.9969999998 0,-23.9619999998 -1.04,0.688 -2.045,1.312 -2.992,2.016 -0.215,0.16 -0.305,0.604 -0.305,0.919 -0.02,5.419 -0.014,10.839 -0.014,16.259 0,0.63 0,1.259 0,1.938 -1.188,0 -2.291,0 -3.468,0 0,-6.032 0,-12.025 0,-18.153 z m -21.239,-34.916 c 0.046,4.079 1.018,7.855 3.511,11.148 4.091,5.402 10.469,5.568 14.78,0.346 2.504,-3.034 3.585,-6.628 3.746,-10.508 0.188,-4.475 -0.773,-8.647 -3.574,-12.24700000003 -4.123,-5.293 -10.637,-5.311 -14.805,-0.048 -2.618,3.31000000003 -3.607,7.16500000003 -3.658,11.30900000003 z m -0.705,23.073 c 7.848,-2.747 15.656,-2.737 23.453,0.056 0,-3.5 0,-6.951 0,-10.55 -0.311,0.479 -0.525,0.824 -0.752,1.159 -1.689,2.504 -3.688,4.741 -6.787,5.29 -2.104,0.371 -4.301,0.301 -6.451,0.281 -0.992,-0.009 -2.018,-0.265 -2.965,-0.593 -2.578,-0.895 -4.262,-2.86 -5.723,-5.052 -0.229,-0.341 -0.445,-0.688 -0.775,-1.205 0,3.687 0,7.133 0,10.614 z"
     id="path23"
     style="clip-rule:evenodd;fill:#26cad3;fill-opacity:1;fill-rule:evenodd"
     inkscape:connector-curvature="0" /></svg>